<?xml version="1.0" encoding="UTF-8"?>
<svg width="1200pt" height="1200pt" version="1.1" viewBox="0 0 1200 1200" xmlns="http://www.w3.org/2000/svg">
 <path d="m626.28 458.52 122.04-212.64c-88.512-37.152-187.73-39.809-278.1-7.4414s-165.34 97.41-210.14 182.31c-44.797 84.902-56.172 183.5-31.883 276.37 24.289 92.867 82.48 173.27 163.11 225.37 80.629 52.098 177.84 72.102 272.49 56.082 94.645-16.023 179.86-66.914 238.85-142.64l-179.16-309.6c-21.168-35.504-56.57-60.199-97.199-67.801zm21.719 141.48c0 12.73-5.0586 24.938-14.059 33.941-9.0039 9-21.211 14.059-33.941 14.059s-24.938-5.0586-33.941-14.059c-9-9.0039-14.059-21.211-14.059-33.941s5.0586-24.938 14.059-33.941c9.0039-9 21.211-14.059 33.941-14.059s24.938 5.0586 33.941 14.059c9 9.0039 14.059 21.211 14.059 33.941zm-48-288-110.88 192-72.602-125.76c51.535-42.848 116.46-66.285 183.48-66.238zm-283.92 336c-11.297-66.074 0.92969-134.02 34.562-192l110.76 192zm183.48 221.88c-62.656-23.504-115.23-67.984-148.8-125.88h221.52zm100.44 18.121 110.88-192 72 125.64c-51.344 42.785-116.04 66.262-182.88 66.359z"/>
 <path d="m864 336-39.961 80.039-80.039 39.961 80.039 39.961 39.961 80.039 39.961-80.039 80.039-39.961-80.039-39.961z"/>
</svg>
