<?xml version="1.0" encoding="UTF-8" standalone="no"?>
<!DOCTYPE svg PUBLIC "-//W3C//DTD SVG 1.1//EN" "http://www.w3.org/Graphics/SVG/1.1/DTD/svg11.dtd">
<svg width="100%" height="100%" viewBox="0 0 1200 1200" version="1.1" xmlns="http://www.w3.org/2000/svg" xmlns:xlink="http://www.w3.org/1999/xlink" xml:space="preserve" xmlns:serif="http://www.serif.com/" style="fill-rule:evenodd;clip-rule:evenodd;stroke-linejoin:round;stroke-miterlimit:2;">
    <g transform="matrix(1.56189,0,0,1.56249,-336.901,-337.422)">
        <path d="M626.28,458.52L748.32,245.88C659.808,208.728 560.59,206.071 470.22,238.439C379.85,270.806 304.88,335.849 260.08,420.749C215.283,505.651 203.908,604.249 228.197,697.119C252.486,789.986 310.677,870.389 391.307,922.489C471.936,974.587 569.147,994.591 663.797,978.571C758.442,962.548 843.657,911.657 902.647,835.931L723.487,526.331C702.319,490.827 666.917,466.132 626.288,458.53L626.28,458.52ZM647.999,600C647.999,612.73 642.94,624.938 633.94,633.941C624.936,642.941 612.729,648 599.999,648C587.269,648 575.061,642.941 566.058,633.941C557.058,624.937 551.999,612.73 551.999,600C551.999,587.27 557.058,575.062 566.058,566.059C575.062,557.059 587.269,552 599.999,552C612.729,552 624.937,557.059 633.94,566.059C642.94,575.063 647.999,587.27 647.999,600ZM599.999,312L489.119,504L416.517,378.24C468.052,335.392 532.977,311.955 599.997,312.002L599.999,312ZM316.079,648C304.782,581.926 317.009,513.98 350.641,456L461.401,648L316.079,648ZM499.559,869.88C436.903,846.376 384.329,801.896 350.759,744L572.279,744L499.559,869.88ZM599.999,888.001L710.879,696.001L782.879,821.641C731.535,864.426 666.839,887.903 599.999,888L599.999,888.001Z" style="fill-rule:nonzero;"/>
    </g>
    <g transform="matrix(1.56189,0,0,1.56249,-336.901,-337.422)">
        <path d="M864,336L824.039,416.039L744,456L824.039,495.961L864,576L903.961,495.961L984,456L903.961,416.039L864,336Z" style="fill-rule:nonzero;"/>
    </g>
</svg>
