<?xml version="1.0" encoding="UTF-8" standalone="no"?>
<!DOCTYPE svg PUBLIC "-//W3C//DTD SVG 1.1//EN" "http://www.w3.org/Graphics/SVG/1.1/DTD/svg11.dtd">
<svg width="100%" height="100%" viewBox="0 0 1200 1200" version="1.1" xmlns="http://www.w3.org/2000/svg" xmlns:xlink="http://www.w3.org/1999/xlink" xml:space="preserve" xmlns:serif="http://www.serif.com/" style="fill-rule:evenodd;clip-rule:evenodd;stroke-linejoin:round;stroke-miterlimit:2;">
    <g transform="matrix(1.66666,0,0,1.66613,-399.992,-399.482)">
        <path d="M840,300L624,300C610.781,300 600,310.781 600,324C600,337.219 610.781,348 624,348L840,348C879.703,348 912,380.297 912,420L912,840C912,879.703 879.703,912 840,912L420,912C380.297,912 348,879.703 348,840L348,624C348,610.781 337.219,600 324,600C310.781,600 300,610.781 300,624L300,840C300,906.141 353.859,960 420,960L840,960C906.141,960 960,906.141 960,840L960,420C960,353.859 906.141,300 840,300Z" style="fill-rule:nonzero;"/>
    </g>
    <g transform="matrix(1.66666,0,0,1.66613,-399.992,-399.482)">
        <path d="M247.45,323.86L282.606,341.391L300.137,376.453C302.434,381 306.981,383.766 312.137,383.766C317.293,383.766 321.84,381 323.996,376.453L341.527,341.297L376.589,323.766C381.136,321.469 384.042,316.922 384.042,311.766C384.042,306.61 381.183,302.063 376.73,299.907L341.574,282.282L324.043,247.22C321.746,242.673 317.199,239.767 312.043,239.767C306.886,239.767 302.433,242.533 300.043,247.079L282.512,282.235L247.45,299.766C242.903,302.063 239.996,306.61 239.996,311.766C239.996,316.923 242.856,321.47 247.309,323.625L247.45,323.86Z" style="fill-rule:nonzero;"/>
    </g>
    <g transform="matrix(1.66666,0,0,1.66613,-399.992,-399.482)">
        <path d="M474.61,538.78L503.063,552.936L517.219,581.248C519.281,585.326 523.078,587.951 527.907,587.857C532.454,587.857 536.532,585.326 538.595,581.248L552.986,552.795L581.439,538.639C585.517,536.577 588.048,532.498 588.048,527.951C588.048,523.404 585.517,519.326 581.439,517.263L552.986,502.872L538.83,474.56C536.767,470.482 532.689,467.951 528.142,467.951C523.595,467.951 519.517,470.482 517.454,474.56L503.063,503.013L474.61,517.31C471.001,519.091 468.61,522.701 468.001,526.685C467.391,531.747 469.922,536.622 474.469,538.919L474.61,538.78Z" style="fill-rule:nonzero;"/>
    </g>
</svg>
